<svg width="35" height="35" viewBox="0 0 35 35" fill="none" xmlns="http://www.w3.org/2000/svg">
<path d="M5.83331 26.25C5.83331 24.7029 6.44789 23.2192 7.54186 22.1252C8.63582 21.0313 10.1196 20.4167 11.6666 20.4167H23.3333C24.8804 20.4167 26.3641 21.0313 27.4581 22.1252C28.5521 23.2192 29.1666 24.7029 29.1666 26.25C29.1666 27.0236 28.8594 27.7654 28.3124 28.3124C27.7654 28.8594 27.0235 29.1667 26.25 29.1667H8.74998C7.97643 29.1667 7.23457 28.8594 6.68758 28.3124C6.1406 27.7654 5.83331 27.0236 5.83331 26.25Z" stroke="#F4F5F0" stroke-linejoin="round"/>
<path d="M17.5 14.5833C19.9162 14.5833 21.875 12.6246 21.875 10.2083C21.875 7.7921 19.9162 5.83334 17.5 5.83334C15.0838 5.83334 13.125 7.7921 13.125 10.2083C13.125 12.6246 15.0838 14.5833 17.5 14.5833Z" stroke="#F4F5F0"/>
</svg>
